<svg xmlns="http://www.w3.org/2000/svg" width="100%" height="100%" viewBox="0 0 1200 420"><defs><linearGradient id="bgGradient" x1="0%" x2="100%" y1="0%" y2="100%"><stop offset="0%" stop-color="#070a14"/><stop offset="50%" stop-color="#0d1527"/><stop offset="100%" stop-color="#080e1a"/></linearGradient><linearGradient id="accentCyan" x1="0%" x2="100%" y1="0%" y2="100%"><stop offset="0%" stop-color="#00f2fe"/><stop offset="100%" stop-color="#4facfe"/></linearGradient><linearGradient id="accentPurple" x1="0%" x2="100%" y1="0%" y2="100%"><stop offset="0%" stop-color="#a18cd1"/><stop offset="100%" stop-color="#fbc2eb"/></linearGradient><linearGradient id="accentGold" x1="0%" x2="100%" y1="0%" y2="100%"><stop offset="0%" stop-color="#f6d365"/><stop offset="100%" stop-color="#fda085"/></linearGradient><linearGradient id="cardGrad" x1="0%" x2="100%" y1="0%" y2="100%"><stop offset="0%" stop-color="rgba(255, 255, 255, 0.08)"/><stop offset="100%" stop-color="rgba(255, 255, 255, 0.02)"/></linearGradient><filter id="glow" width="140%" height="140%" x="-20%" y="-20%"><feGaussianBlur result="blur" stdDeviation="8"/><feComposite in="SourceGraphic" in2="blur" operator="over"/></filter><filter id="cardShadow" width="120%" height="120%" x="-10%" y="-10%"><feDropShadow dx="0" dy="12" flood-color="#000" flood-opacity=".5" stdDeviation="15"/></filter><style>@keyframes pulseGlow{0%{opacity:.6;transform:scale(1)}50%{opacity:1;transform:scale(1.04)}}@keyframes floatCard1{0%{transform:translateY(0)}50%{transform:translateY(-8px)}}@keyframes floatCard2{0%{transform:translateY(0)}50%{transform:translateY(8px)}}@keyframes radarWave{0%{r:20px;opacity:.8}}@keyframes starTwinkle{0%{opacity:.8;transform:scale(1)}50%{opacity:1;transform:scale(1.15);filter:drop-shadow(0 0 6px gold)}}.pulse-item{animation:pulseGlow 4s ease-in-out infinite;transform-origin:center}.card-1{animation:floatCard1 5s ease-in-out infinite}.card-2{animation:floatCard2 6s ease-in-out infinite}.radar-1,.radar-2{animation:radarWave 3s cubic-bezier(.1,.5,.9,1) infinite;transform-origin:980px 210px}.radar-2{animation-delay:1.5s}.star-anim{animation:starTwinkle 2.5s ease-in-out infinite;transform-origin:center}.star-d1{animation-delay:.2s}.star-d2{animation-delay:.4s}.star-d3{animation-delay:.6s}.star-d4{animation-delay:.8s}.star-d5{animation-delay:1s}</style></defs><rect width="1200" height="420" fill="url(#bgGradient)" rx="16"/><g stroke="rgba(255, 255, 255, 0.04)" stroke-width="1"><line x1="0" x2="1200" y1="70" y2="70"/><line x1="0" x2="1200" y1="140" y2="140"/><line x1="0" x2="1200" y1="210" y2="210"/><line x1="0" x2="1200" y1="280" y2="280"/><line x1="0" x2="1200" y1="350" y2="350"/><line x1="200" x2="200" y1="0" y2="420"/><line x1="400" x2="400" y1="0" y2="420"/><line x1="600" x2="600" y1="0" y2="420"/><line x1="800" x2="800" y1="0" y2="420"/><line x1="1000" x2="1000" y1="0" y2="420"/></g><circle cx="150" cy="100" r="180" fill="#00f2fe" filter="url(#glow)" opacity=".08"/><circle cx="1000" cy="210" r="220" fill="#a18cd1" filter="url(#glow)" opacity=".1"/><circle cx="650" cy="350" r="160" fill="#fda085" filter="url(#glow)" opacity=".05"/><g transform="translate(980, 210)"><circle cx="0" cy="0" r="130" fill="none" stroke="rgba(79, 172, 254, 0.15)" stroke-width="1.5"/><circle cx="0" cy="0" r="95" fill="none" stroke="rgba(79, 172, 254, 0.25)" stroke-width="1.5"/><circle cx="0" cy="0" r="60" fill="none" stroke="rgba(79, 172, 254, 0.35)" stroke-width="1.5"/><circle cx="0" cy="0" r="25" fill="none" stroke="rgba(0, 242, 254, 0.6)" stroke-width="2"/><circle cx="0" cy="0" r="20" fill="none" stroke="#00f2fe" stroke-width="2" class="radar-1" opacity="0"/><circle cx="0" cy="0" r="20" fill="none" stroke="#4facfe" stroke-width="2" class="radar-2" opacity="0"/><g><path fill="url(#accentCyan)" d="M15 2 L4 6 V14 C4 20 15 26 15 26 C15 26 26 20 26 14 V6 L15 2 Z" filter="url(#glow)" opacity=".9" transform="translate(-24, -28) scale(1.6)"/><path fill="none" stroke="#070a14" stroke-linecap="round" stroke-linejoin="round" stroke-width="2.5" d="M11 13 L14 16 L20 10" transform="translate(-24, -28) scale(1.6)"/></g><circle cx="-65" cy="-45" r="5" fill="gold" filter="url(#glow)"><animate attributeName="opacity" dur="2s" repeatCount="indefinite" values="0.3;1;0.3"/></circle><circle cx="70" cy="50" r="6" fill="#00f2fe" filter="url(#glow)"><animate attributeName="opacity" dur="2.8s" repeatCount="indefinite" values="1;0.2;1"/></circle><circle cx="-40" cy="75" r="4.5" fill="#fbc2eb" filter="url(#glow)"><animate attributeName="opacity" dur="2.2s" repeatCount="indefinite" values="0.2;0.9;0.2"/></circle></g><g class="card-1" filter="url(#cardShadow)" transform="translate(800, 55)"><rect width="260" height="68" fill="url(#cardGrad)" stroke="rgba(255, 255, 255, 0.15)" stroke-width="1.2" rx="12"/><circle cx="36" cy="34" r="18" fill="rgba(0, 242, 254, 0.15)"/><text x="36" y="40" fill="#00f2fe" font-family="-apple-system, BlinkMacSystemFont, 'Segoe UI', Roboto, sans-serif" font-size="18" text-anchor="middle">📈</text><text x="68" y="29" fill="#a0aec0" font-family="-apple-system, BlinkMacSystemFont, 'Segoe UI', Roboto, sans-serif" font-size="12" font-weight="600">SENTIMENT INDEX</text><text x="68" y="51" fill="#fff" font-family="-apple-system, BlinkMacSystemFont, 'Segoe UI', Roboto, sans-serif" font-size="18" font-weight="800">98.4% Positive</text></g><g class="card-2" filter="url(#cardShadow)" transform="translate(740, 295)"><rect width="280" height="72" fill="url(#cardGrad)" stroke="rgba(255, 255, 255, 0.15)" stroke-width="1.2" rx="12"/><circle cx="38" cy="36" r="18" fill="rgba(246, 211, 101, 0.15)"/><text x="38" y="42" fill="#f6d365" font-family="-apple-system, BlinkMacSystemFont, 'Segoe UI', Roboto, sans-serif" font-size="18" text-anchor="middle">⭐</text><text x="70" y="30" fill="#a0aec0" font-family="-apple-system, BlinkMacSystemFont, 'Segoe UI', Roboto, sans-serif" font-size="12" font-weight="600">REPUTATION RATING</text><text x="70" y="53" fill="gold" font-family="-apple-system, BlinkMacSystemFont, 'Segoe UI', Roboto, sans-serif" font-size="18" font-weight="800">4.9 / 5.0 (Omnichannel)</text></g><g transform="translate(80, 75)"><rect width="275" height="34" fill="rgba(79, 172, 254, 0.12)" stroke="rgba(79, 172, 254, 0.4)" stroke-width="1.2" rx="17"/><circle cx="18" cy="17" r="5" fill="#00f2fe" class="pulse-item"/><text x="34" y="22" fill="#00f2fe" font-family="-apple-system, BlinkMacSystemFont, 'Segoe UI', Roboto, sans-serif" font-size="13" font-weight="700" letter-spacing="1.2">AWESOME ECOSYSTEM</text><text x="0" y="90" fill="#fff" font-family="-apple-system, BlinkMacSystemFont, 'Segoe UI', Roboto, 'Inter', sans-serif" font-size="44" font-weight="900" letter-spacing="-.8">Reputation Management</text><text x="0" y="130" fill="#94a3b8" font-family="-apple-system, BlinkMacSystemFont, 'Segoe UI', Roboto, 'Inter', sans-serif" font-size="18" font-weight="400" letter-spacing="-.2">Curated Directory of Commercial SaaS &amp; Open-Source Tools for Review Monitoring,</text><text x="0" y="156" fill="#94a3b8" font-family="-apple-system, BlinkMacSystemFont, 'Segoe UI', Roboto, 'Inter', sans-serif" font-size="18" font-weight="400" letter-spacing="-.2">Automated Response, Listings Management, and Sentiment Analysis</text><g><g class="star-anim star-d1" transform="translate(0, 190) translate(0, 0)"><polygon fill="gold" points="12 2 15 9 23 9 17 14 19 22 12 17 5 22 7 14 1 9 9 9"/></g><g class="star-anim star-d2" transform="translate(0, 190) translate(28, 0)"><polygon fill="gold" points="12 2 15 9 23 9 17 14 19 22 12 17 5 22 7 14 1 9 9 9"/></g><g class="star-anim star-d3" transform="translate(0, 190) translate(56, 0)"><polygon fill="gold" points="12 2 15 9 23 9 17 14 19 22 12 17 5 22 7 14 1 9 9 9"/></g><g class="star-anim star-d4" transform="translate(0, 190) translate(84, 0)"><polygon fill="gold" points="12 2 15 9 23 9 17 14 19 22 12 17 5 22 7 14 1 9 9 9"/></g><g class="star-anim star-d5" transform="translate(0, 190) translate(112, 0)"><polygon fill="gold" points="12 2 15 9 23 9 17 14 19 22 12 17 5 22 7 14 1 9 9 9"/></g><text x="148" y="18" fill="#f8fafc" font-family="-apple-system, BlinkMacSystemFont, 'Segoe UI', Roboto, sans-serif" font-size="14" font-weight="700" transform="translate(0, 190)">Trusted Online Reputation Architecture</text></g><g transform="translate(0, 240)"><rect width="140" height="30" fill="rgba(255, 255, 255, 0.06)" stroke="rgba(255, 255, 255, 0.12)" stroke-width="1" rx="8"/><text x="70" y="20" fill="#cbd5e1" font-family="-apple-system, BlinkMacSystemFont, 'Segoe UI', Roboto, sans-serif" font-size="12" font-weight="600" text-anchor="middle">📡 Social Listening</text><g transform="translate(152, 0)"><rect width="156" height="30" fill="rgba(255, 255, 255, 0.06)" stroke="rgba(255, 255, 255, 0.12)" stroke-width="1" rx="8"/><text x="78" y="20" fill="#cbd5e1" font-family="-apple-system, BlinkMacSystemFont, 'Segoe UI', Roboto, sans-serif" font-size="12" font-weight="600" text-anchor="middle">💬 Review Generation</text></g><g transform="translate(320, 0)"><rect width="158" height="30" fill="rgba(255, 255, 255, 0.06)" stroke="rgba(255, 255, 255, 0.12)" stroke-width="1" rx="8"/><text x="79" y="20" fill="#cbd5e1" font-family="-apple-system, BlinkMacSystemFont, 'Segoe UI', Roboto, sans-serif" font-size="12" font-weight="600" text-anchor="middle">🧠 Sentiment Analysis</text></g><g transform="translate(490, 0)"><rect width="145" height="30" fill="rgba(255, 255, 255, 0.06)" stroke="rgba(255, 255, 255, 0.12)" stroke-width="1" rx="8"/><text x="72" y="20" fill="#cbd5e1" font-family="-apple-system, BlinkMacSystemFont, 'Segoe UI', Roboto, sans-serif" font-size="12" font-weight="600" text-anchor="middle">📍 Local Listings</text></g></g></g></svg>